<mxfile host="app.diagrams.net" modified="2024-04-04T13:11:50.476Z" agent="Mozilla/5.0 (X11; Ubuntu; Linux x86_64; rv:124.0) Gecko/20100101 Firefox/124.0" version="24.2.2" etag="iQDbUcgU2UKtzhJK0zDv" type="github">
  <diagram name="Page-1" id="khYs8j34iLWeHhEKD8ne">
    <mxGraphModel>
      <root>
        <mxCell id="0" />
        <mxCell id="1" parent="0" />
      </root>
    </mxGraphModel>
  </diagram>
</mxfile>
